<svg width="26" height="28" viewBox="0 0 26 28" fill="#fff" class="group-hover:fill-ElectricAqua" xmlns="http://www.w3.org/2000/svg"><g clip-path="url(#clip0_7_997)"><path d="M24.1249 0H1.87514C0.839478 0 0 0.893637 0 1.99611V25.6813C0 26.7838 0.839478 27.6774 1.87514 27.6774H24.1249C25.1605 27.6774 26 26.7838 26 25.6813V1.99611C26 0.893637 25.1605 0 24.1249 0ZM9.22235 20.9202H6.05626V10.7805H9.22235V20.9202ZM7.6394 9.39586H7.61877C6.55634 9.39586 5.8692 8.61731 5.8692 7.64427C5.8692 6.64928 6.57736 5.89226 7.66043 5.89226C8.7435 5.89226 9.41 6.64928 9.43063 7.64427C9.43063 8.61731 8.7435 9.39586 7.6394 9.39586ZM20.6386 20.9202H17.4729V15.4957C17.4729 14.1324 17.0145 13.2027 15.8689 13.2027C14.9944 13.2027 14.4734 13.8298 14.2445 14.4352C14.1608 14.6519 14.1404 14.9547 14.1404 15.2577V20.9202H10.9745C10.9745 20.9202 11.016 11.7317 10.9745 10.7805H14.1404V12.2161C14.5611 11.5252 15.3139 10.5425 16.9937 10.5425C19.0767 10.5425 20.6386 11.9917 20.6386 15.1061V20.9202Z"></path></g><defs><clipPath id="clip0_7_997"><rect width="26" height="27.6774" fill="white"></rect></clipPath></defs></svg>