<svg width="26" height="27" viewBox="0 0 26 27" fill="#fff" class="group-hover:fill-ElectricAqua" xmlns="http://www.w3.org/2000/svg"><g clip-path="url(#clip0_7_995)"><path d="M24.1249 0.838745H1.87514C0.839478 0.838745 0 1.67822 0 2.71388V24.9636C0 25.9993 0.839478 26.8387 1.87514 26.8387H24.1249C25.1605 26.8387 26 25.9993 26 24.9636V2.71388C26 1.67822 25.1605 0.838745 24.1249 0.838745V0.838745ZM18.9357 10.9748C18.9414 11.1027 18.9442 11.2312 18.9442 11.3604C18.9442 15.3033 15.9429 19.85 10.4544 19.8502H10.4546H10.4544C8.76929 19.8502 7.20122 19.3562 5.88071 18.5098C6.11418 18.5374 6.35182 18.5511 6.59244 18.5511C7.99051 18.5511 9.2771 18.0742 10.2985 17.2738C8.99225 17.2496 7.89093 16.3869 7.51086 15.2013C7.69276 15.2362 7.87982 15.2553 8.07164 15.2553C8.34399 15.2553 8.60782 15.2186 8.85855 15.1501C7.49321 14.8768 6.46469 13.6701 6.46469 12.2253C6.46469 12.2118 6.46469 12.1997 6.46509 12.1872C6.86717 12.4107 7.32698 12.5452 7.81654 12.5603C7.01535 12.0257 6.48869 11.1118 6.48869 10.0766C6.48869 9.52988 6.63647 9.0177 6.89276 8.57674C8.36423 10.3822 10.5633 11.5697 13.0432 11.6944C12.9921 11.4758 12.9657 11.2481 12.9657 11.014C12.9657 9.36682 14.3021 8.03044 15.9499 8.03044C16.8082 8.03044 17.5834 8.39325 18.1279 8.97327C18.8077 8.83917 19.446 8.59082 20.0227 8.24904C19.7995 8.9455 19.3266 9.52988 18.7105 9.89943C19.3141 9.82722 19.8894 9.66714 20.424 9.4295C20.0247 10.028 19.5182 10.5536 18.9357 10.9748Z"></path></g><defs><clipPath id="clip0_7_995"><rect width="26" height="26" fill="white" transform="translate(0 0.838745)"></rect></clipPath></defs></svg>