<svg width="26" height="27" fill="white" viewBox="0 0 26 27" class="group-hover:fill-ElectricAqua" xmlns="http://www.w3.org/2000/svg"><g clip-path="url(#clip0_7_993)"><path d="M23.8293 1.63855H2.14412C1.40159 1.639 0.799656 2.24123 0.799805 2.98405V24.6692C0.800251 25.4118 1.40248 26.0137 2.14531 26.0135H13.8204V16.5873H10.6545V12.8977H13.8204V10.1824C13.8204 7.03366 15.7427 5.31979 18.5516 5.31979C19.8969 5.31979 21.053 5.42007 21.39 5.46485V8.75586H19.4531C17.9249 8.75586 17.629 9.48202 17.629 10.5478V12.8977H21.2829L20.8068 16.5873H17.629V26.0135H23.8293C24.5723 26.0137 25.1747 25.4116 25.1748 24.6686C25.1748 24.6685 25.1748 24.6683 25.1748 24.668V2.98286C25.1745 2.24034 24.5721 1.6384 23.8293 1.63855Z"></path></g><defs><clipPath id="clip0_7_993"><rect width="26" height="26" fill="white" transform="translate(0 0.838745)"></rect></clipPath></defs></svg>